<?xml version="1.0" encoding="UTF-8"?><svg id="a" xmlns="http://www.w3.org/2000/svg" viewBox="0 0 384.05 469.34" fill="white"><path d="M350.25,83.1c-10.17-14.79-22.37-28.07-36.24-39.47l-.02.11C269.17,7.05,210.26-7.62,153.48,3.78,49.6,25.08-17.35,126.56,3.95,230.43c9.28,45.25,34.56,85.65,71.21,113.77,33.34,24.4,61.73,54.94,83.65,89.96l14.93,24.83c6.07,10.1,19.18,13.36,29.28,7.29,2.99-1.8,5.49-4.3,7.29-7.29l14.31-23.85c19.09-33.55,45.11-62.64,76.33-85.33,87.26-60.04,109.33-179.45,49.29-266.71ZM262.52,210.06h-47.72v47.52c0,12.57-10.19,22.76-22.76,22.76-6.05,0-11.85-2.4-16.11-6.67-4.28-4.24-6.69-10.05-6.69-16.09l.02-47.54-47.54.02c-12.57.04-22.8-10.11-22.84-22.68s10.09-22.82,22.66-22.86h47.72v-47.52c.06-12.59,10.29-22.74,22.88-22.68,12.49.04,22.62,10.17,22.66,22.66l-.02,47.54,47.54-.02c12.57-.04,22.8,10.11,22.86,22.7.06,12.59-10.09,22.82-22.66,22.86Z"/></svg>