<svg fill="none" height="512" viewBox="0 0 32 32" width="512" xmlns="http://www.w3.org/2000/svg" ><path d="m27 5h-22c-.53043 0-1.03914.21071-1.41421.58579-.37508.37507-.58579.88378-.58579 1.41421v18c0 .5304.21071 1.0391.58579 1.4142.37507.3751.88378.5858 1.41421.5858h22c.5304 0 1.0391-.2107 1.4142-.5858s.5858-.8838.5858-1.4142v-18c0-.53043-.2107-1.03914-.5858-1.41421-.3751-.37508-.8838-.58579-1.4142-.58579zm-15 13.5c.3331.0017.6631-.0638.9702-.1927.3072-.1289.5852-.3184.8173-.5573.1887-.1743.4371-.2693.6939-.2653.2568.0039.5023.1065.6855.2865s.2901.4236.2986.6803-.0821.5068-.253.6985c-.4162.4307-.9156.7725-1.4678 1.0045-.5522.2321-1.1457.3496-1.7447.3455-1.1935 0-2.33807-.4741-3.18198-1.318s-1.31802-1.9885-1.31802-3.182.47411-2.3381 1.31802-3.182 1.98848-1.318 3.18198-1.318c.599-.0041 1.1925.1134 1.7447.3455.5522.232 1.0516.5738 1.4678 1.0045.1709.1917.2615.4418.253.6985s-.1154.5003-.2986.6803-.4287.2826-.6855.2865c-.2568.004-.5052-.091-.6939-.2653-.2321-.2389-.5101-.4284-.8173-.5573-.3071-.1289-.6371-.1944-.9702-.1927-.663 0-1.2989.2634-1.7678.7322-.46881.4689-.7322 1.1048-.7322 1.7678s.26339 1.2989.7322 1.7678c.4689.4688 1.1048.7322 1.7678.7322zm9 0c.3331.0017.6631-.0638.9702-.1927.3072-.1289.5852-.3184.8173-.5573.1887-.1743.4371-.2693.6939-.2653.2568.0039.5023.1065.6855.2865s.2901.4236.2986.6803-.0821.5068-.253.6985c-.4162.4307-.9156.7725-1.4678 1.0045-.5522.2321-1.1457.3496-1.7447.3455-1.1935 0-2.3381-.4741-3.182-1.318s-1.318-1.9885-1.318-3.182.4741-2.3381 1.318-3.182 1.9885-1.318 3.182-1.318c.599-.0041 1.1925.1134 1.7447.3455.5522.232 1.0516.5738 1.4678 1.0045.1709.1917.2615.4418.253.6985s-.1154.5003-.2986.6803-.4287.2826-.6855.2865c-.2568.004-.5052-.091-.6939-.2653-.2321-.2389-.5101-.4284-.8173-.5573-.3071-.1289-.6371-.1944-.9702-.1927-.663 0-1.2989.2634-1.7678.7322-.4688.4689-.7322 1.1048-.7322 1.7678s.2634 1.2989.7322 1.7678c.4689.4688 1.1048.7322 1.7678.7322z" fill="white"/></svg>