<svg id="Layer_1" enable-background="new 0 0 512 512" height="512" viewBox="0 0 512 512" width="512" xmlns="http://www.w3.org/2000/svg" fill="white"><g id="Layer_2_00000109751579172316076620000006735783325092197525_"><g id="close"><path d="m431.6 512c-21.3.1-41.8-8.4-56.9-23.5l-118.7-118.8-118.7 118.8c-31.3 31.5-82.2 31.7-113.7.4s-31.8-82.2-.5-113.7c.2-.2.3-.3.5-.5l118.7-118.7-118.7-118.7c-31.3-31.6-31.1-82.5.5-113.8 31.3-31.1 81.9-31.1 113.2 0l118.7 118.8 118.7-118.8c31.3-31.5 82.2-31.7 113.8-.4s31.8 82.2.5 113.7c-.2.2-.3.3-.5.5l-118.7 118.7 118.7 118.7c31.4 31.4 31.4 82.3 0 113.7-15.1 15.1-35.6 23.6-56.9 23.6z"/></g></g></svg>