<svg id="Layer_1" enable-background="new 0 0 512 512" viewBox="0 0 512 512" xmlns="http://www.w3.org/2000/svg"><g id="Layer_2_00000060023533762576666680000013708961081672033712_"><g id="trash_xmark"><path d="m64.9 123.9c0 4 13.4 231.9 20.2 340 1.9 29.9 21.7 48 52 48h235.6c34.5 0 52.7-17.7 54.8-52 5.6-92.4 19.2-317.7 20.2-336.1zm271.5 227.5c12.9 12.9 12.9 33.8 0 46.7s-33.8 12.9-46.7 0l-33.4-33.4-33.4 33.4c-12.9 12.9-33.8 12.9-46.7 0s-12.9-33.8 0-46.7l33.4-33.4-33.4-33.5c-12.9-12.9-12.9-33.8 0-46.7s33.8-12.9 46.7 0l33.4 33.4 33.4-33.4c12.9-12.9 33.8-12.9 46.7 0s12.9 33.8 0 46.7l-33.4 33.5z"/><path d="m447.3 32.9c-27.1-.2-54.1-.4-81.1.1-1.6-18.6-17.2-33-35.9-33h-148.6c-18.7 0-34.3 14.4-35.8 33-27.8-.5-55.7-.3-83.5-.1-14.6.2-25.2 8.3-28.7 21.1-6.1 22.3 7.4 40.7 30.5 40.8 64.1.2 128.1.1 192.1.1h190.8c20.7 0 32.6-11.6 32.7-30.9s-11.9-31-32.5-31.1z"/></g></g></svg>