<svg clip-rule="evenodd" fill-rule="evenodd" stroke-linejoin="round" stroke-miterlimit="2" viewBox="0 0 32 32" xmlns="http://www.w3.org/2000/svg"  fill="white"><g id="Icon"/><path d="m15 27.668c0 .884-.351 1.731-.976 2.356s-1.472.976-2.356.976h-7.336c-.884 0-1.731-.351-2.356-.976s-.976-1.472-.976-2.356v-7.336c0-.884.351-1.731.976-2.356s1.472-.976 2.356-.976h.003c.883 0 1.731.351 2.356.976s.976 1.472.976 2.356v4.001h4.001c.884 0 1.731.351 2.356.976s.976 1.473.976 2.356z"/><path d="m15 4.364v.003c0 .884-.351 1.731-.976 2.356s-1.472.976-2.356.976h-4.001v4.001c0 .884-.351 1.732-.976 2.356-.625.625-1.473.976-2.356.976h-.003c-.884 0-1.731-.351-2.356-.976-.625-.624-.976-1.472-.976-2.356v-7.336c0-.883.351-1.731.976-2.356s1.472-.976 2.356-.976h7.336c.884 0 1.731.351 2.356.976s.976 1.473.976 2.356z"/><path d="m17 4.364c0-.883.351-1.731.976-2.356s1.472-.976 2.356-.976h7.336c.884 0 1.731.351 2.356.976s.976 1.473.976 2.356v7.336c0 .884-.351 1.732-.976 2.356-.625.625-1.472.976-2.356.976h-.003c-.883 0-1.731-.351-2.356-.976-.625-.624-.976-1.472-.976-2.356v-4.001h-4.001c-.884 0-1.731-.351-2.356-.976s-.976-1.472-.976-2.356z"/><path d="m17 27.668v-.003c0-.883.351-1.731.976-2.356s1.472-.976 2.356-.976h4.001v-4.001c0-.884.351-1.731.976-2.356s1.473-.976 2.356-.976h.003c.884 0 1.731.351 2.356.976s.976 1.472.976 2.356v7.336c0 .884-.351 1.731-.976 2.356s-1.472.976-2.356.976h-7.336c-.884 0-1.731-.351-2.356-.976s-.976-1.472-.976-2.356z"/></svg>