<?xml version="1.0" encoding="UTF-8"?><svg id="a" xmlns="http://www.w3.org/2000/svg" viewBox="0 0 428.17 380.58"><path d="M194.2,0C158.73,0,169.45,60.01,49.78,93.67,16.69,102.95,0,109.95,0,144.39v91.84c0,34.43,16.69,41.44,49.78,50.71,119.68,33.67,108.95,93.64,144.42,93.64h15.41c16.21,0,29.37-13.14,29.37-29.36V29.39c0-16.22-13.16-29.39-29.37-29.39h-15.41Z"/><g id="b"><g id="c"><path d="M403.66,268.13c-6.47.03-12.69-2.55-17.28-7.14l-36.05-36.08-36.05,36.08c-9.51,9.57-24.96,9.63-34.53.12-9.57-9.51-9.66-24.96-.15-34.53.06-.06.09-.09.15-.15l36.05-36.05-36.05-36.05c-9.51-9.6-9.44-25.05.15-34.56,9.51-9.44,24.87-9.44,34.38,0l36.05,36.08,36.05-36.08c9.51-9.57,24.96-9.63,34.56-.12,9.6,9.51,9.66,24.96.15,34.53-.06.06-.09.09-.15.15l-36.05,36.05,36.05,36.05c9.54,9.54,9.54,24.99,0,34.53-4.59,4.59-10.81,7.17-17.28,7.17Z"/></g></g></svg>