<svg clip-rule="evenodd" fill-rule="evenodd" stroke-linejoin="round" stroke-miterlimit="2" viewBox="0 0 42 42" xmlns="http://www.w3.org/2000/svg"><g transform="translate(-1289 -129)"><path d="m1313.58 166.622c-1.15.248-2.35.378-3.58.378s-2.43-.13-3.58-.378c-1.08-.232-2.14.457-2.37 1.536-.24 1.079.45 2.143 1.53 2.375 1.43.306 2.9.467 4.42.467s3-.161 4.42-.467c1.08-.232 1.77-1.296 1.53-2.375-.23-1.079-1.29-1.768-2.37-1.536zm-12.8-2.337c-.99-.641-1.93-1.396-2.8-2.264-.87-.869-1.62-1.808-2.27-2.799-.59-.927-1.83-1.193-2.76-.594-.93.6-1.19 1.839-.59 2.766.79 1.224 1.72 2.383 2.79 3.455s2.23 2.004 3.46 2.795c.92.6 2.16.334 2.76-.593s.33-2.166-.59-2.766zm18.44-28.566c4.68 3.03 7.78 8.296 7.78 14.281s-3.1 11.251-7.78 14.281c-.93.6-1.19 1.839-.59 2.766.6.926 1.84 1.192 2.76.592 5.78-3.743 9.61-10.248 9.61-17.639s-3.83-13.896-9.61-17.639c-.92-.6-2.16-.334-2.76.592-.6.927-.34 2.166.59 2.766zm2.78 14.281c0-1.303-.66-2.518-1.76-3.223l-12.6-8.099c-.69-.443-1.49-.678-2.31-.678-.88 0-1.73.352-2.35.976-.63.625-.98 1.472-.98 2.356v17.335c0 1.841 1.49 3.333 3.33 3.333.82 0 1.62-.235 2.31-.678l12.6-8.099c1.1-.705 1.76-1.92 1.76-3.223zm-28.62 3.58c-.25-1.154-.38-2.352-.38-3.58s.13-2.426.38-3.58c.23-1.08-.46-2.144-1.54-2.375-1.08-.232-2.14.456-2.37 1.535-.31 1.425-.47 2.904-.47 4.42s.16 2.995.47 4.42c.23 1.079 1.29 1.767 2.37 1.535 1.08-.231 1.77-1.295 1.54-2.375zm2.33-12.802c.65-.991 1.4-1.93 2.27-2.799.87-.868 1.81-1.623 2.8-2.264.92-.6 1.19-1.839.59-2.766s-1.84-1.193-2.76-.593c-1.23.791-2.39 1.723-3.46 2.795s-2 2.231-2.79 3.455c-.6.927-.34 2.166.59 2.766.93.599 2.17.333 2.76-.594zm10.71-7.4c1.15-.248 2.35-.378 3.58-.378s2.43.13 3.58.378c1.08.232 2.14-.457 2.37-1.536.24-1.079-.45-2.143-1.53-2.375-1.42-.306-2.9-.467-4.42-.467s-2.99.161-4.42.467c-1.08.232-1.77 1.296-1.53 2.375.23 1.079 1.29 1.768 2.37 1.536z"/></g></svg>