<svg clip-rule="evenodd" fill-rule="evenodd" stroke-linejoin="round" stroke-miterlimit="2" viewBox="0 0 42 42" xmlns="http://www.w3.org/2000/svg" fill="white"><g transform="translate(-1469 -9)"><path d="m1473 15.342c-2.33.824-4 3.048-4 5.658s1.67 4.834 4 5.658v22.342c0 1.104.9 2 2 2s2-.896 2-2v-22.342c2.33-.824 4-3.048 4-5.658s-1.67-4.834-4-5.658v-4.342c0-1.104-.9-2-2-2s-2 .896-2 2zm30 6c-2.33.824-4 3.048-4 5.658s1.67 4.834 4 5.658v16.342c0 1.104.9 2 2 2s2-.896 2-2v-16.342c2.33-.824 4-3.048 4-5.658s-1.67-4.834-4-5.658v-10.342c0-1.104-.9-2-2-2s-2 .896-2 2zm-15 12c-2.33.824-4 3.048-4 5.658s1.67 4.834 4 5.658v4.342c0 1.104.9 2 2 2s2-.896 2-2v-4.342c2.33-.824 4-3.048 4-5.658s-1.67-4.834-4-5.658v-22.342c0-1.104-.9-2-2-2s-2 .896-2 2z"/></g></svg>