<svg id="Layer_1" enable-background="new 0 0 512 512" height="512" viewBox="0 0 512 512" width="512" xmlns="http://www.w3.org/2000/svg"><path clip-rule="evenodd" d="m465.987 307.958c-17.964-10.346-30.057-29.74-30.058-51.958 0-22.227 12.103-41.625 30.077-51.969 12.941-7.447 18.349-23.027 12.803-36.89-4.221-10.553-9.245-20.934-15.095-31.066s-12.329-19.673-19.357-28.606c-9.233-11.733-25.43-14.84-38.349-7.356-17.944 10.395-40.795 11.176-60.044.063-19.242-11.11-29.99-31.28-29.968-52.01.016-14.906-10.736-27.358-25.485-29.514-22.693-3.317-45.931-3.405-68.984-.067-14.772 2.139-25.551 14.614-25.524 29.54.037 20.744-10.713 40.934-29.968 52.051s-42.115 10.331-60.062-.073c-12.914-7.486-29.106-4.389-38.345 7.335-14.417 18.295-25.959 38.465-34.433 59.777-5.507 13.85-.099 29.388 12.817 36.827 17.965 10.346 30.059 29.739 30.059 51.958 0 22.227-12.103 41.626-30.077 51.969-12.941 7.447-18.349 23.027-12.804 36.89 4.222 10.553 9.246 20.935 15.095 31.066 5.85 10.132 12.329 19.673 19.358 28.605 9.232 11.733 25.429 14.84 38.348 7.356 17.944-10.394 40.795-11.176 60.044-.063 19.242 11.11 29.99 31.28 29.968 52.01-.016 14.905 10.736 27.358 25.485 29.514 22.693 3.317 45.931 3.405 68.984.067 14.772-2.139 25.551-14.614 25.524-29.54-.037-20.744 10.713-40.934 29.968-52.051 19.254-11.117 42.114-10.331 60.061.073 12.914 7.486 29.106 4.389 38.345-7.336 14.416-18.295 25.958-38.463 34.434-59.774 5.507-13.85.099-29.389-12.817-36.828zm-169.168 18.742c-39.046 22.543-88.975 9.165-111.518-29.881s-9.166-88.975 29.881-111.518 88.975-9.165 111.518 29.881 9.165 88.974-29.881 111.518z" fill-rule="evenodd"/></svg>