<?xml version="1.0" encoding="UTF-8"?><svg id="a" xmlns="http://www.w3.org/2000/svg" viewBox="0 0 342.42 380.58" fill="white"><path d="M194.2,0C158.73,0,169.45,60.01,49.78,93.67,16.69,102.95,0,109.95,0,144.39v91.84c0,34.43,16.69,41.44,49.78,50.71,119.68,33.67,108.95,93.64,144.42,93.64h15.41c16.21,0,29.37-13.14,29.37-29.36V29.39c0-16.22-13.16-29.39-29.37-29.39h-15.41Z"/><path d="M300.42,93.88c-17.6.2-28.54,19.19-19.91,34.55,20.64,38.09,20.64,85.61,0,123.72-6.49,11.3-2.4,25.72,9.03,31.94,11.43,6.21,25.74,1.76,31.68-9.85,28.27-52.14,28.27-115.82,0-167.97-4.07-7.71-12.09-12.52-20.8-12.4Z"/></svg>